<?xml version="1.0" encoding="utf-8"?>
<!-- Generator: Adobe Illustrator 16.0.0, SVG Export Plug-In . SVG Version: 6.00 Build 0)  -->
<!DOCTYPE svg PUBLIC "-//W3C//DTD SVG 1.1//EN" "http://www.w3.org/Graphics/SVG/1.1/DTD/svg11.dtd">
<svg version="1.1" id="Layer_1" xmlns="http://www.w3.org/2000/svg" xmlns:xlink="http://www.w3.org/1999/xlink" x="0px" y="0px"
	 width="500px" height="216.6px" viewBox="0 0 500 216.6" enable-background="new 0 0 500 216.6" xml:space="preserve">
<polygon fill="#01549C" points="406.795,151.565 500,0.001 434.771,0.994 345,145.823 "/>
<path fill="#01549C" d="M0,160.99v55.608h196.034c25.351-1.57,36.354-13.756,44.607-22.399c8.843-9.236,13.753-28.69,13.753-28.69
	v50.698h98.841c7.467,0,14.541-3.145,19.848-10.612c5.502-7.269,28.101-44.604,28.101-44.604H0z"/>
<path fill="#01549C" d="M310.988,1.188H51.216C6.02,10.229,1.303,51.494,1.303,51.494c-2.16,12.182,0.55,27.431,0.55,27.431
	c1.375,8.252,15.561,39.577,49.363,42.721c20.238,1.964,200.428,16.309,200.428,16.309c-3.537-18.077-11.593-27.314-17.096-32.422
	c-12.574-11.987-32.42-15.524-32.42-15.524C197.41,89.616,63.201,78.414,63.201,78.414c-4.325-0.194-12.38-1.374-12.182-11.986
	c0-1.375,1.179-10.611,11.395-10.611h194.34v82.532l54.041,3.929C310.988,142.277,310.988,1.188,310.988,1.188z"/>
</svg>
